Coordinates
version=1
nRows=32
nColumns=12
inDegrees=yes

Units are S.I. units (second, meters, Newtons, ...)
Angles are in degrees

endheader
time	SC_y	SC_z	SC_x	AC_y	AC_z	AC_x	GH_y	GH_z	GH_yy	EL_x	PS_y
       0.0              -18.71          5.779          29.66          69.18        -0.8062         -6.174         -74.06          2.709          136.0          18.36          127.8
   0.01834              -18.72          5.783          29.66          69.18        -0.8049         -6.174         -74.04          2.721          136.0          18.38          127.8
   0.03667              -18.72          5.788          29.66          69.18        -0.8036         -6.175         -74.03          2.734          136.0          18.39          127.8
   0.05501              -18.72          5.793          29.65          69.18        -0.8022         -6.176         -74.01          2.748          135.9          18.41          127.8
   0.07334              -18.72          5.799          29.65          69.18        -0.8007         -6.177         -73.99          2.763          135.9          18.43          127.8
   0.09168              -18.73          5.804          29.64          69.17        -0.7991         -6.177         -73.98          2.779          135.9          18.45          127.8
      0.11              -18.73           5.81          29.64          69.17        -0.7974         -6.178         -73.96          2.796          135.8          18.47          127.8
    0.1284              -18.73          5.817          29.63          69.17        -0.7955         -6.179         -73.93          2.814          135.8           18.5          127.8
    0.1467              -18.74          5.824          29.63          69.16        -0.7936          -6.18         -73.91          2.833          135.7          18.52          127.8
     0.165              -18.74          5.832          29.62          69.16        -0.7915         -6.181         -73.89          2.854          135.7          18.55          127.8
    0.1834              -18.74           5.84          29.62          69.16        -0.7892         -6.183         -73.86          2.876          135.6          18.58          127.8
    0.2017              -18.75          5.849          29.61          69.15        -0.7868         -6.184         -73.83            2.9          135.6          18.61          127.8
      0.22              -18.75          5.858           29.6          69.15        -0.7841         -6.185          -73.8          2.926          135.5          18.65          127.8
    0.2384              -18.76          5.868           29.6          69.14        -0.7813         -6.187         -73.77          2.954          135.5          18.68          127.8
    0.2567              -18.76          5.879          29.59          69.14        -0.7783         -6.189         -73.73          2.984          135.4          18.72          127.8
     0.275              -18.77          5.891          29.58          69.13        -0.7749          -6.19          -73.7          3.017          135.3          18.77          127.8
    0.2934              -18.77          5.904          29.57          69.13        -0.7713         -6.192         -73.65          3.053          135.2          18.81          127.8
    0.3117              -18.78          5.918          29.56          69.12        -0.7674         -6.194         -73.61          3.092          135.1          18.86          127.8
    0.3301              -18.79          5.934          29.55          69.12        -0.7631         -6.197         -73.56          3.134          135.0          18.92          127.8
    0.3484               -18.8          5.951          29.53          69.11        -0.7584         -6.199          -73.5          3.181          134.9          18.98          127.8
    0.3667               -18.8          5.969          29.52           69.1        -0.7532         -6.202         -73.44          3.232          134.8          19.05          127.8
    0.3851              -18.81           5.99           29.5          69.09        -0.7476         -6.205         -73.38          3.288          134.7          19.12          127.8
    0.4034              -18.82          6.012          29.49          69.08        -0.7413         -6.208          -73.3           3.35          134.5           19.2          127.8
    0.4217              -18.84          6.037          29.47          69.07        -0.7343         -6.212         -73.22          3.418          134.4           19.3          127.8
    0.4401              -18.85          6.065          29.45          69.06        -0.7266         -6.216         -73.13          3.495          134.2           19.4          127.8
    0.4584              -18.86          6.096          29.42          69.04         -0.718         -6.221         -73.03           3.58          134.0          19.51          127.8
    0.4767              -18.88          6.131           29.4          69.03        -0.7083         -6.226         -72.92          3.676          133.8          19.63          127.8
    0.4951               -18.9           6.17          29.37          69.01        -0.6974         -6.232         -72.79          3.783          133.5          19.78          127.8
    0.5134              -18.92          6.214          29.34          68.99        -0.6852         -6.239         -72.65          3.904          133.2          19.94          127.8
    0.5318              -18.94          6.264           29.3          68.97        -0.6712         -6.246         -72.49          4.042          132.9          20.12          127.8
    0.5501              -18.97          6.321          29.25          68.94        -0.6553         -6.255          -72.3          4.199          132.6          20.33          127.8
    0.5684               -19.0          6.387          29.21          68.91         -0.637         -6.265         -72.09           4.38          132.1          20.56          127.8
